<svg version="1.1" id="Layer_1" xmlns="http://www.w3.org/2000/svg" xmlns:xlink="http://www.w3.org/1999/xlink" x="0px" y="0px"
	 width="100%" viewBox="0 0 8000 8000" enable-background="new 0 0 8000 8000" xml:space="preserve">
<path fill="#FFFFFF" opacity="1.000000" stroke="none" 
	d="
M5004.000000,8004.000000 
	C3336.000000,8004.000000 1670.000000,8004.000000 4.000000,8004.000000 
	C4.000000,5337.333496 4.000000,2670.666748 4.000000,4.000001 
	C2670.666748,4.000001 5337.333496,4.000001 8004.000000,4.000000 
	C8004.000000,2670.666748 8004.000000,5337.333496 8004.000000,8004.000000 
	C7004.666504,8004.000000 6005.333496,8004.000000 5004.000000,8004.000000 
M2788.535889,5841.513672 
	C2711.041016,5768.992188 2638.489014,5691.845215 2572.155518,5608.965332 
	C2443.881348,5448.694336 2340.207764,5273.929688 2263.534668,5083.338379 
	C2213.162842,4958.125000 2175.520996,4829.232422 2151.547363,4696.371582 
	C2142.911377,4648.509766 2135.420654,4600.499023 2130.967773,4552.044434 
	C2127.615723,4515.569824 2122.662842,4479.170898 2121.061523,4442.622559 
	C2118.525635,4384.739258 2115.281738,4326.861328 2118.506104,4268.781250 
	C2120.943604,4224.875977 2122.783936,4180.980957 2127.095947,4137.183105 
	C2133.301025,4074.156006 2142.781982,4011.690918 2155.157227,3949.588867 
	C2186.697266,3791.311523 2237.691162,3639.565918 2307.475586,3494.130859 
	C2390.250000,3321.624512 2496.480225,3164.939941 2626.562012,3024.610840 
	C2714.319824,2929.939941 2811.076904,2845.456299 2917.019531,2771.581543 
	C3093.280273,2648.673340 3285.547363,2560.920898 3494.157471,2509.276123 
	C3553.649658,2494.547852 3613.737305,2482.616455 3674.645508,2475.261719 
	C3699.766602,2472.228271 3724.907715,2469.339355 3750.073730,2466.708740 
	C3787.196533,2462.828369 3824.409668,2460.186768 3861.756348,2460.052979 
	C3866.152588,2460.037109 3870.552734,2461.129150 3876.138916,2461.864014 
	C3876.138916,2470.195068 3876.138184,2477.443848 3876.138916,2484.692383 
	C3876.147949,2575.355957 3875.400391,2666.028564 3876.465820,2756.679932 
	C3877.056396,2806.951172 3901.223145,2844.874512 3946.321777,2867.182129 
	C3991.265625,2889.413330 4035.368164,2885.464111 4076.757812,2856.610596 
	C4083.310791,2852.042725 4089.448975,2846.876953 4095.744141,2841.943115 
	C4200.142090,2760.130859 4304.531738,2678.308350 4408.927246,2596.493652 
	C4513.323242,2514.678467 4617.731445,2432.879150 4722.119629,2351.053955 
	C4856.931641,2245.380371 4991.742188,2139.704346 5126.522461,2033.990234 
	C5156.415039,2010.544434 5186.823730,1987.700195 5215.861328,1963.234009 
	C5268.030762,1919.277710 5274.587402,1842.205322 5232.009766,1788.845825 
	C5223.151367,1777.744019 5212.280273,1769.038208 5201.278809,1760.409180 
	C5090.100586,1673.202881 4978.876465,1586.053833 4867.661621,1498.893433 
	C4678.281738,1350.474121 4488.903809,1202.051636 4299.515137,1053.644043 
	C4227.117188,996.912354 4154.621094,940.305176 4082.314453,883.457886 
	C4057.773682,864.163940 4030.429688,854.807373 3999.011475,855.168213 
	C3950.046143,855.730591 3892.810303,891.058350 3879.746094,952.582886 
	C3877.415283,963.560120 3876.345215,975.001221 3876.296875,986.235107 
	C3875.991699,1056.898193 3876.195801,1127.563232 3876.052490,1198.227295 
	C3876.038086,1205.358276 3877.634277,1212.797974 3873.939209,1220.217773 
	C3869.462158,1221.339111 3865.040283,1222.757446 3860.508301,1223.532837 
	C3826.382568,1229.370605 3792.106934,1234.415405 3758.117432,1240.952026 
	C3631.755859,1265.252930 3507.438477,1297.525635 3385.328613,1338.170410 
	C3215.430908,1394.721680 3052.436523,1466.980103 2895.870117,1553.791870 
	C2703.166748,1660.640625 2526.069336,1789.130249 2364.455078,1938.816528 
	C2267.983398,2028.168335 2178.176025,2123.854248 2095.275391,2226.024658 
	C1975.592651,2373.527344 1872.032715,2531.559326 1784.677490,2700.172607 
	C1706.012451,2852.011963 1642.122925,3009.899658 1593.223877,3173.787354 
	C1566.551636,3263.180664 1544.472290,3353.699951 1527.411133,3445.449219 
	C1515.718140,3508.330566 1506.260254,3571.500488 1498.851318,3635.036865 
	C1492.365601,3690.655273 1487.640381,3746.415283 1485.101807,3802.288330 
	C1482.895752,3850.848877 1482.976807,3899.531494 1482.817749,3948.162842 
	C1482.514771,4040.885254 1488.645142,4133.229004 1499.343384,4225.338867 
	C1506.109009,4283.591797 1514.709473,4341.549316 1525.428955,4399.157227 
	C1544.939209,4504.006348 1571.345825,4607.191406 1602.953125,4709.035645 
	C1648.101685,4854.512207 1706.508057,4994.463379 1777.943848,5129.011719 
	C1887.113892,5334.631836 2022.889893,5520.934570 2184.050781,5688.793457 
	C2254.304932,5761.967773 2329.117432,5830.223145 2407.810059,5894.243164 
	C2532.282471,5995.508301 2665.324951,6083.877930 2807.099854,6158.979492 
	C2995.344727,6258.697266 3193.286621,6332.409180 3401.326660,6378.609863 
	C3434.468262,6385.970215 3467.796387,6392.595215 3501.215820,6398.566895 
	C3527.862793,6403.328125 3552.165039,6387.181152 3559.890137,6361.623535 
	C3568.990723,6331.517090 3553.022217,6307.150879 3532.443604,6297.999023 
	C3527.579590,6295.836426 3522.589111,6293.944336 3517.602539,6292.072266 
	C3315.294678,6216.150391 3128.251709,6112.577637 2956.050293,5982.112793 
	C2898.623291,5938.604492 2843.724365,5892.081543 2788.535889,5841.513672 
M5752.405273,5766.360840 
	C5951.949219,5587.816406 6116.512695,5381.368164 6246.098145,5147.071289 
	C6349.549805,4960.025391 6425.920410,4762.430664 6475.000977,4554.428223 
	C6498.891602,4453.182617 6515.450684,4350.665039 6525.036621,4247.000977 
	C6530.749512,4185.225586 6534.377441,4123.365234 6534.916016,4061.377441 
	C6535.895996,3948.575928 6528.214844,3836.297852 6512.669922,3724.541748 
	C6504.036621,3662.476807 6492.518066,3600.988770 6477.929688,3540.061523 
	C6448.048340,3415.264648 6404.305664,3295.272461 6351.342773,3178.608643 
	C6253.124023,2962.259521 6118.248047,2772.267334 5941.899414,2612.338623 
	C5895.939941,2570.658447 5847.911621,2531.519043 5797.900879,2494.792480 
	C5787.581543,2487.213867 5776.898926,2480.497559 5764.232422,2477.939697 
	C5736.002441,2472.237793 5712.650391,2481.376709 5695.062988,2503.503174 
	C5677.586426,2525.491455 5676.088867,2549.859863 5689.248047,2574.623291 
	C5693.598145,2582.809326 5699.431152,2590.234619 5704.837402,2597.829102 
	C5757.102539,2671.250732 5803.513184,2748.203125 5844.020996,2828.704102 
	C5968.892090,3076.860352 6030.458984,3340.760254 6039.351562,3617.582275 
	C6042.350586,3710.951172 6038.563965,3804.136963 6029.023438,3897.122314 
	C6020.923828,3976.061768 6008.854980,4054.319580 5992.809570,4132.020508 
	C5950.957520,4334.698242 5883.591309,4528.537109 5791.039062,4713.562500 
	C5722.238770,4851.103516 5640.927246,4980.782227 5542.672852,5099.333008 
	C5390.262695,5283.225098 5211.046387,5436.146973 5006.829590,5559.835938 
	C4791.923340,5689.999512 4560.803711,5780.331543 4317.210449,5839.846191 
	C4145.267578,5881.855469 3970.732910,5907.129395 3794.253662,5918.964844 
	C3707.125244,5924.807617 3619.836426,5927.387695 3532.477295,5926.296387 
	C3417.110596,5924.854492 3302.008545,5918.782227 3187.317139,5906.040039 
	C3161.623047,5903.185059 3133.652832,5915.435059 3121.940674,5944.760742 
	C3111.078857,5971.957031 3118.822021,5999.327148 3142.603271,6017.819336 
	C3147.333008,6021.497070 3152.352539,6024.805664 3157.277832,6028.227539 
	C3290.588135,6120.873535 3434.904785,6191.579590 3588.380615,6243.843750 
	C3791.901367,6313.149414 4001.561768,6346.799805 4216.220703,6350.838379 
	C4277.576172,6351.992188 4338.808594,6349.204590 4400.025391,6345.023926 
	C4463.908691,6340.661621 4527.414551,6333.174805 4590.565918,6322.969238 
	C4700.515625,6305.198730 4808.643066,6279.542969 4914.737793,6245.504883 
	C5226.912109,6145.348633 5505.188477,5985.849609 5752.405273,5766.360840 
M5082.261719,7144.231934 
	C5120.920410,7144.064941 5159.578613,7143.911621 5198.237305,7143.714355 
	C5203.564941,7143.687500 5209.173340,7144.472656 5214.164551,7143.104980 
	C5227.298340,7139.506348 5240.596680,7140.356934 5253.874023,7140.245605 
	C5284.537109,7139.988281 5315.201660,7139.911133 5345.865723,7139.723633 
	C5351.194824,7139.690918 5356.807617,7140.516602 5361.796387,7139.147949 
	C5375.584961,7135.366211 5389.560059,7136.363281 5403.499512,7136.201172 
	C5426.162598,7135.937988 5448.828613,7135.919434 5471.492676,7135.725586 
	C5476.817383,7135.679688 5482.451172,7136.396973 5487.400879,7134.932129 
	C5498.558594,7131.628906 5509.841797,7132.353516 5521.124512,7132.215332 
	C5540.454590,7131.978027 5559.786621,7131.928711 5579.118164,7131.771973 
	C5583.782715,7131.734375 5588.696289,7132.508301 5593.064941,7131.321777 
	C5609.466309,7126.867188 5626.158691,7128.518066 5642.745605,7128.130859 
	C5659.404785,7127.742188 5676.373535,7129.601074 5692.652832,7127.003906 
	C5709.963379,7124.243164 5727.119629,7124.594238 5744.365234,7124.043457 
	C5755.688965,7123.681152 5767.323730,7125.347656 5778.296875,7123.302734 
	C5801.478027,7118.981934 5824.749512,7120.686035 5847.977051,7119.787598 
	C5851.968262,7119.633301 5856.231934,7120.195801 5859.891113,7118.982910 
	C5870.315430,7115.529297 5880.975586,7116.370117 5891.594238,7116.154297 
	C5903.590332,7115.910156 5915.926758,7117.520996 5927.510254,7115.244141 
	C5947.396484,7111.336426 5967.298828,7112.621582 5987.200195,7111.799805 
	C5991.192383,7111.635254 5995.449707,7112.237305 5999.121582,7111.051270 
	C6010.191895,7107.475586 6021.541016,7108.570801 6032.805176,7107.947266 
	C6056.677734,7106.625000 6080.538086,7105.084473 6104.402344,7103.614258 
	C6105.729004,7103.532715 6107.043457,7103.257324 6108.367676,7103.108887 
	C6117.579102,7102.076172 6126.772949,7100.823242 6136.007812,7100.072266 
	C6156.520020,7098.404297 6177.307129,7098.456543 6197.486328,7094.950684 
	C6210.731445,7092.649414 6223.988281,7093.011230 6237.105469,7090.940430 
	C6252.154297,7088.563965 6267.173828,7085.533203 6282.326660,7084.393066 
	C6308.262695,7082.441406 6333.520996,7076.965332 6358.776367,7071.422363 
	C6367.822266,7069.436523 6376.565430,7065.938965 6385.301758,7062.735352 
	C6389.242676,7061.290039 6392.350586,7057.967773 6391.583984,7053.608887 
	C6391.074219,7050.713379 6388.974121,7046.995605 6386.519531,7045.751465 
	C6379.442871,7042.166504 6372.052734,7038.660156 6364.377930,7036.895508 
	C6339.821289,7031.250000 6315.159668,7026.023926 6289.976074,7023.723145 
	C6277.434570,7022.576660 6264.946289,7020.812988 6252.455078,7019.167969 
	C6235.379883,7016.919922 6218.376953,7013.982910 6201.248047,7012.317871 
	C6180.110352,7010.263672 6158.875488,7009.212891 6137.682617,7007.726562 
	C6136.354004,7007.633301 6134.970215,7007.721191 6133.708008,7007.374512 
	C6110.366699,7000.962891 6086.095703,7005.209473 6062.378906,7000.747559 
	C6045.632324,6997.596680 6028.068848,6998.880859 6010.814941,6996.850586 
	C5987.807129,6994.142578 5964.446777,6995.520996 5941.214355,6992.638184 
	C5920.216797,6990.033203 5898.864746,6991.083984 5877.596191,6988.890137 
	C5849.256836,6985.967773 5820.524414,6988.202148 5791.994629,6984.571289 
	C5775.576660,6982.481934 5758.708496,6984.002930 5742.045898,6983.730957 
	C5736.740234,6983.644531 5731.434570,6983.107910 5726.144043,6982.617676 
	C5718.229492,6981.885254 5710.340332,6980.500977 5702.417969,6980.302734 
	C5683.761230,6979.834473 5665.090332,6979.934082 5646.426270,6979.732422 
	C5641.768066,6979.682129 5636.816406,6980.310059 5632.513184,6978.973145 
	C5621.390625,6975.518066 5610.081543,6976.338379 5598.798828,6976.193359 
	C5580.135254,6975.953613 5561.469238,6975.956055 5542.805176,6975.729980 
	C5537.490723,6975.665527 5532.169434,6975.296387 5526.873047,6974.827148 
	C5518.297852,6974.067383 5509.750488,6972.500488 5501.172852,6972.348633 
	C5474.514160,6971.875977 5447.846191,6971.915039 5421.182129,6971.736816 
	C5416.516602,6971.706055 5411.603516,6972.513672 5407.231445,6971.341797 
	C5390.162598,6966.765137 5372.801270,6968.468262 5355.549316,6968.196777 
	C5331.555176,6967.819336 5307.554199,6967.907715 5283.556641,6967.712891 
	C5278.233398,6967.668945 5272.899902,6967.448242 5267.594727,6967.015625 
	C5257.693848,6966.208008 5247.819336,6964.491699 5237.918945,6964.375488 
	C5197.925781,6963.905273 5157.926758,6963.948242 5117.931152,6963.675781 
	C5111.294922,6963.630371 5104.653320,6963.083496 5098.031738,6962.551758 
	C5090.107910,6961.915527 5082.208008,6960.434082 5074.290039,6960.376465 
	C5022.295410,6959.997559 4970.298828,6959.920898 4918.303223,6959.695312 
	C4912.312012,6959.669434 4906.005371,6960.465332 4900.398926,6958.897949 
	C4889.861328,6955.953125 4879.285156,6956.352051 4868.661133,6956.318848 
	C4789.333984,6956.070312 4710.006348,6955.895508 4630.679199,6955.661133 
	C4624.687012,6955.643555 4618.388672,6956.463867 4612.768555,6954.931641 
	C4601.572266,6951.878418 4590.320312,6952.352539 4579.032227,6952.334473 
	C4451.708496,6952.130859 4324.384277,6951.821289 4197.060547,6951.848633 
	C3942.412598,6951.903809 3687.764648,6952.144043 3433.116699,6952.350586 
	C3425.800049,6952.356934 3418.469971,6952.643066 3411.171143,6953.157227 
	C3401.923828,6953.809082 3392.706299,6955.533203 3383.469482,6955.580078 
	C3304.809814,6955.976074 3226.148438,6956.080566 3147.487793,6956.327148 
	C3140.833252,6956.348145 3134.165283,6956.565918 3127.529297,6957.049805 
	C3117.622559,6957.772461 3107.744385,6959.517578 3097.843994,6959.601562 
	C3045.850342,6960.040527 2993.853027,6960.084473 2941.857178,6960.296875 
	C2936.528809,6960.318848 2930.921387,6959.520508 2925.927246,6960.879395 
	C2912.131348,6964.634766 2898.154053,6963.619629 2884.217773,6963.732422 
	C2848.888428,6964.018066 2813.557129,6964.082520 2778.226807,6964.268066 
	C2772.897461,6964.295898 2767.284912,6963.459473 2762.293945,6964.820801 
	C2747.843018,6968.765625 2733.190918,6967.602051 2718.590576,6967.761719 
	C2691.261230,6968.060547 2663.929199,6968.090820 2636.598145,6968.262695 
	C2631.934570,6968.291992 2627.009521,6967.529297 2622.656738,6968.746582 
	C2607.573975,6972.964355 2592.227295,6971.563477 2576.964600,6971.795410 
	C2556.302490,6972.109375 2535.635742,6972.080078 2514.971436,6972.260254 
	C2510.311768,6972.300781 2505.376465,6971.666504 2501.049316,6972.957031 
	C2489.266357,6976.471680 2477.282715,6975.390137 2465.342041,6975.844238 
	C2436.127197,6976.953125 2406.904053,6974.919922 2377.649414,6979.195801 
	C2359.351562,6981.870117 2340.373291,6979.575195 2321.728516,6980.269531 
	C2302.501953,6980.985352 2283.321045,6982.873047 2264.097900,6983.767090 
	C2251.454590,6984.354980 2238.769775,6983.995605 2226.107422,6984.254883 
	C2220.801270,6984.364258 2215.496826,6984.889160 2210.206543,6985.382812 
	C2202.292969,6986.120605 2194.407471,6987.447754 2186.482666,6987.716797 
	C2171.163086,6988.235840 2155.495605,6986.277344 2140.573730,6988.842773 
	C2119.971191,6992.383789 2099.438965,6991.298340 2078.875977,6992.178711 
	C2074.881836,6992.349609 2070.650146,6991.588867 2066.926270,6992.651367 
	C2051.231689,6997.133789 2035.179077,6995.447754 2019.265747,6996.141602 
	C2013.947144,6996.373047 2008.616211,6996.528809 2003.320435,6997.030762 
	C1994.753296,6997.842773 1986.232666,6999.255859 1977.653198,6999.809082 
	C1951.800293,7001.478027 1925.928223,7002.850098 1900.064697,7004.354980 
	C1898.737305,7004.432617 1897.389893,7004.541504 1896.100708,7004.843750 
	C1873.328003,7010.179688 1849.821533,7007.752441 1826.827393,7011.639648 
	C1809.216309,7014.617676 1791.106812,7014.509277 1773.341553,7016.746582 
	C1747.049805,7020.057617 1720.778076,7023.717773 1694.668335,7028.217773 
	C1677.049805,7031.254395 1659.662842,7035.747559 1642.307007,7040.123047 
	C1637.274536,7041.392090 1632.430298,7044.069336 1627.998291,7046.885742 
	C1622.829590,7050.169434 1622.997559,7057.255859 1628.509033,7059.898926 
	C1637.468384,7064.194824 1646.562134,7069.086426 1656.146240,7071.032715 
	C1681.465820,7076.174316 1707.047485,7080.071777 1732.588501,7084.056152 
	C1745.686401,7086.099121 1758.924561,7087.236328 1772.092529,7088.838867 
	C1791.161133,7091.158203 1810.181152,7093.991211 1829.300415,7095.753906 
	C1851.111938,7097.764160 1873.009766,7098.838379 1894.869629,7100.326660 
	C1896.197754,7100.416992 1897.613525,7100.312988 1898.833008,7100.742188 
	C1910.443481,7104.823242 1922.526611,7103.683594 1934.468384,7104.079590 
	C1939.131470,7104.234375 1944.054932,7103.361328 1948.417114,7104.563477 
	C1965.448730,7109.256348 1982.825562,7107.493164 2000.069092,7108.198730 
	C2003.396606,7108.334961 2006.937256,7107.790527 2010.014404,7108.741699 
	C2023.695312,7112.972656 2037.749756,7111.570801 2051.676025,7112.060547 
	C2058.336426,7112.294922 2065.285645,7111.109863 2071.618652,7112.612793 
	C2092.038086,7117.458496 2112.722412,7115.308594 2133.283203,7116.215332 
	C2138.596436,7116.449707 2143.913330,7116.733887 2149.208496,7117.215820 
	C2157.781006,7117.996582 2166.319580,7119.423340 2174.903564,7119.742676 
	C2189.553955,7120.287109 2204.555664,7118.296387 2218.820557,7120.769043 
	C2244.052002,7125.143555 2269.297363,7123.073730 2294.512451,7124.177246 
	C2299.835938,7124.410156 2305.463135,7123.465820 2310.434326,7124.879395 
	C2323.556885,7128.609375 2336.864258,7127.614746 2350.137207,7127.831055 
	C2366.133301,7128.092285 2382.134766,7128.031738 2398.130859,7128.291992 
	C2403.434814,7128.377930 2408.736084,7128.954102 2414.027100,7129.435547 
	C2421.943604,7130.156738 2429.839355,7131.520020 2437.762451,7131.679688 
	C2459.754395,7132.121094 2481.756348,7132.066406 2503.754150,7132.243652 
	C2508.416992,7132.281738 2513.344482,7131.529785 2517.692627,7132.760254 
	C2532.112061,7136.839844 2546.784180,7135.606934 2561.384521,7135.793457 
	C2584.713623,7136.091309 2608.046387,7136.101562 2631.377441,7136.264160 
	C2636.041260,7136.296387 2640.965088,7135.525391 2645.320068,7136.737793 
	C2660.403564,7140.936035 2675.746826,7139.612793 2691.011230,7139.781250 
	C2719.007080,7140.089355 2747.005859,7140.109863 2775.003418,7140.270508 
	C2779.668213,7140.297363 2784.577881,7139.506348 2788.953125,7140.673340 
	C2805.364502,7145.050781 2822.047852,7143.601074 2838.639648,7143.754395 
	C2874.635010,7144.086914 2910.633301,7144.087891 2946.629883,7144.300781 
	C2952.617188,7144.336426 2958.617432,7144.568359 2964.584961,7145.044434 
	C2973.825439,7145.782227 2983.038086,7147.527344 2992.271240,7147.593262 
	C3051.598389,7148.019531 3110.927734,7148.087402 3170.256348,7148.326660 
	C3176.246094,7148.351074 3182.249512,7148.536621 3188.220215,7148.993164 
	C3198.125000,7149.750000 3208.004639,7151.545898 3217.900879,7151.589844 
	C3308.559814,7151.994629 3399.219971,7152.095215 3489.879639,7152.362793 
	C3496.517822,7152.382324 3503.166504,7152.859863 3509.788330,7153.395020 
	C3517.047607,7153.981934 3524.281494,7155.548828 3531.526611,7155.551270 
	C3848.836670,7155.663574 4166.146484,7155.654297 4483.456543,7155.611816 
	C4489.432129,7155.611328 4495.418945,7155.170410 4501.381348,7154.699219 
	C4509.964355,7154.020508 4518.526855,7152.458008 4527.103516,7152.423340 
	C4618.429199,7152.052246 4709.755859,7151.926270 4801.082520,7151.668457 
	C4807.729980,7151.649414 4814.388672,7151.300293 4821.020020,7150.805176 
	C4830.266113,7150.115234 4839.487305,7148.467773 4848.727539,7148.403320 
	C4907.387695,7147.993652 4966.050781,7147.919434 5024.712891,7147.695801 
	C5030.706543,7147.673340 5037.005371,7148.524902 5042.628418,7147.000977 
	C5054.474609,7143.790039 5066.400391,7144.458008 5082.261719,7144.231934 
z"/>
<path fill="#21C1CD" opacity="1.000000" stroke="none" 
	d="
M2789.569824,5842.474609 
	C2843.724365,5892.081543 2898.623291,5938.604492 2956.050293,5982.112793 
	C3128.251709,6112.577637 3315.294678,6216.150391 3517.602539,6292.072266 
	C3522.589111,6293.944336 3527.579590,6295.836426 3532.443604,6297.999023 
	C3553.022217,6307.150879 3568.990723,6331.517090 3559.890137,6361.623535 
	C3552.165039,6387.181152 3527.862793,6403.328125 3501.215820,6398.566895 
	C3467.796387,6392.595215 3434.468262,6385.970215 3401.326660,6378.609863 
	C3193.286621,6332.409180 2995.344727,6258.697266 2807.099854,6158.979492 
	C2665.324951,6083.877930 2532.282471,5995.508301 2407.810059,5894.243164 
	C2329.117432,5830.223145 2254.304932,5761.967773 2184.050781,5688.793457 
	C2022.889893,5520.934570 1887.113892,5334.631836 1777.943848,5129.011719 
	C1706.508057,4994.463379 1648.101685,4854.512207 1602.953125,4709.035645 
	C1571.345825,4607.191406 1544.939209,4504.006348 1525.428955,4399.157227 
	C1514.709473,4341.549316 1506.109009,4283.591797 1499.343384,4225.338867 
	C1488.645142,4133.229004 1482.514771,4040.885254 1482.817749,3948.162842 
	C1482.976807,3899.531494 1482.895752,3850.848877 1485.101807,3802.288330 
	C1487.640381,3746.415283 1492.365601,3690.655273 1498.851318,3635.036865 
	C1506.260254,3571.500488 1515.718140,3508.330566 1527.411133,3445.449219 
	C1544.472290,3353.699951 1566.551636,3263.180664 1593.223877,3173.787354 
	C1642.122925,3009.899658 1706.012451,2852.011963 1784.677490,2700.172607 
	C1872.032715,2531.559326 1975.592651,2373.527344 2095.275391,2226.024658 
	C2178.176025,2123.854248 2267.983398,2028.168335 2364.455078,1938.816528 
	C2526.069336,1789.130249 2703.166748,1660.640625 2895.870117,1553.791870 
	C3052.436523,1466.980103 3215.430908,1394.721680 3385.328613,1338.170410 
	C3507.438477,1297.525635 3631.755859,1265.252930 3758.117432,1240.952026 
	C3792.106934,1234.415405 3826.382568,1229.370605 3860.508301,1223.532837 
	C3865.040283,1222.757446 3869.462158,1221.339111 3873.939209,1220.217773 
	C3877.634277,1212.797974 3876.038086,1205.358276 3876.052490,1198.227295 
	C3876.195801,1127.563232 3875.991699,1056.898193 3876.296875,986.235107 
	C3876.345215,975.001221 3877.415283,963.560120 3879.746094,952.582886 
	C3892.810303,891.058350 3950.046143,855.730591 3999.011475,855.168213 
	C4030.429688,854.807373 4057.773682,864.163940 4082.314453,883.457886 
	C4154.621094,940.305176 4227.117188,996.912354 4299.515137,1053.644043 
	C4488.903809,1202.051636 4678.281738,1350.474121 4867.661621,1498.893433 
	C4978.876465,1586.053833 5090.100586,1673.202881 5201.278809,1760.409180 
	C5212.280273,1769.038208 5223.151367,1777.744019 5232.009766,1788.845825 
	C5274.587402,1842.205322 5268.030762,1919.277710 5215.861328,1963.234009 
	C5186.823730,1987.700195 5156.415039,2010.544434 5126.522461,2033.990234 
	C4991.742188,2139.704346 4856.931641,2245.380371 4722.119629,2351.053955 
	C4617.731445,2432.879150 4513.323242,2514.678467 4408.927246,2596.493652 
	C4304.531738,2678.308350 4200.142090,2760.130859 4095.744141,2841.943115 
	C4089.448975,2846.876953 4083.310791,2852.042725 4076.757812,2856.610596 
	C4035.368164,2885.464111 3991.265625,2889.413330 3946.321777,2867.182129 
	C3901.223145,2844.874512 3877.056396,2806.951172 3876.465820,2756.679932 
	C3875.400391,2666.028564 3876.147949,2575.355957 3876.138916,2484.692383 
	C3876.138184,2477.443848 3876.138916,2470.195068 3876.138916,2461.864014 
	C3870.552734,2461.129150 3866.152588,2460.037109 3861.756348,2460.052979 
	C3824.409668,2460.186768 3787.196533,2462.828369 3750.073730,2466.708740 
	C3724.907715,2469.339355 3699.766602,2472.228271 3674.645508,2475.261719 
	C3613.737305,2482.616455 3553.649658,2494.547852 3494.157471,2509.276123 
	C3285.547363,2560.920898 3093.280273,2648.673340 2917.019531,2771.581543 
	C2811.076904,2845.456299 2714.319824,2929.939941 2626.562012,3024.610840 
	C2496.480225,3164.939941 2390.250000,3321.624512 2307.475586,3494.130859 
	C2237.691162,3639.565918 2186.697266,3791.311523 2155.157227,3949.588867 
	C2142.781982,4011.690918 2133.301025,4074.156006 2127.095947,4137.183105 
	C2122.783936,4180.980957 2120.943604,4224.875977 2118.506104,4268.781250 
	C2115.281738,4326.861328 2118.525635,4384.739258 2121.061523,4442.622559 
	C2122.662842,4479.170898 2127.615723,4515.569824 2130.967773,4552.044434 
	C2135.420654,4600.499023 2142.911377,4648.509766 2151.547363,4696.371582 
	C2175.520996,4829.232422 2213.162842,4958.125000 2263.534668,5083.338379 
	C2340.207764,5273.929688 2443.881348,5448.694336 2572.155518,5608.965332 
	C2638.489014,5691.845215 2711.041016,5768.992188 2789.569824,5842.474609 
z"/>
<path fill="#1B348F" opacity="1.000000" stroke="none" 
	d="
M5751.342773,5767.305664 
	C5505.188477,5985.849609 5226.912109,6145.348633 4914.737793,6245.504883 
	C4808.643066,6279.542969 4700.515625,6305.198730 4590.565918,6322.969238 
	C4527.414551,6333.174805 4463.908691,6340.661621 4400.025391,6345.023926 
	C4338.808594,6349.204590 4277.576172,6351.992188 4216.220703,6350.838379 
	C4001.561768,6346.799805 3791.901367,6313.149414 3588.380615,6243.843750 
	C3434.904785,6191.579590 3290.588135,6120.873535 3157.277832,6028.227539 
	C3152.352539,6024.805664 3147.333008,6021.497070 3142.603271,6017.819336 
	C3118.822021,5999.327148 3111.078857,5971.957031 3121.940674,5944.760742 
	C3133.652832,5915.435059 3161.623047,5903.185059 3187.317139,5906.040039 
	C3302.008545,5918.782227 3417.110596,5924.854492 3532.477295,5926.296387 
	C3619.836426,5927.387695 3707.125244,5924.807617 3794.253662,5918.964844 
	C3970.732910,5907.129395 4145.267578,5881.855469 4317.210449,5839.846191 
	C4560.803711,5780.331543 4791.923340,5689.999512 5006.829590,5559.835938 
	C5211.046387,5436.146973 5390.262695,5283.225098 5542.672852,5099.333008 
	C5640.927246,4980.782227 5722.238770,4851.103516 5791.039062,4713.562500 
	C5883.591309,4528.537109 5950.957520,4334.698242 5992.809570,4132.020508 
	C6008.854980,4054.319580 6020.923828,3976.061768 6029.023438,3897.122314 
	C6038.563965,3804.136963 6042.350586,3710.951172 6039.351562,3617.582275 
	C6030.458984,3340.760254 5968.892090,3076.860352 5844.020996,2828.704102 
	C5803.513184,2748.203125 5757.102539,2671.250732 5704.837402,2597.829102 
	C5699.431152,2590.234619 5693.598145,2582.809326 5689.248047,2574.623291 
	C5676.088867,2549.859863 5677.586426,2525.491455 5695.062988,2503.503174 
	C5712.650391,2481.376709 5736.002441,2472.237793 5764.232422,2477.939697 
	C5776.898926,2480.497559 5787.581543,2487.213867 5797.900879,2494.792480 
	C5847.911621,2531.519043 5895.939941,2570.658447 5941.899414,2612.338623 
	C6118.248047,2772.267334 6253.124023,2962.259521 6351.342773,3178.608643 
	C6404.305664,3295.272461 6448.048340,3415.264648 6477.929688,3540.061523 
	C6492.518066,3600.988770 6504.036621,3662.476807 6512.669922,3724.541748 
	C6528.214844,3836.297852 6535.895996,3948.575928 6534.916016,4061.377441 
	C6534.377441,4123.365234 6530.749512,4185.225586 6525.036621,4247.000977 
	C6515.450684,4350.665039 6498.891602,4453.182617 6475.000977,4554.428223 
	C6425.920410,4762.430664 6349.549805,4960.025391 6246.098145,5147.071289 
	C6116.512695,5381.368164 5951.949219,5587.816406 5751.342773,5767.305664 
z"/>
<path fill="#C5C9D5" opacity="1.000000" stroke="none" 
	d="
M5080.307617,7144.238770 
	C5066.400391,7144.458008 5054.474609,7143.790039 5042.628418,7147.000977 
	C5037.005371,7148.524902 5030.706543,7147.673340 5024.712891,7147.695801 
	C4966.050781,7147.919434 4907.387695,7147.993652 4848.727539,7148.403320 
	C4839.487305,7148.467773 4830.266113,7150.115234 4821.020020,7150.805176 
	C4814.388672,7151.300293 4807.729980,7151.649414 4801.082520,7151.668457 
	C4709.755859,7151.926270 4618.429199,7152.052246 4527.103516,7152.423340 
	C4518.526855,7152.458008 4509.964355,7154.020508 4501.381348,7154.699219 
	C4495.418945,7155.170410 4489.432129,7155.611328 4483.456543,7155.611816 
	C4166.146484,7155.654297 3848.836670,7155.663574 3531.526611,7155.551270 
	C3524.281494,7155.548828 3517.047607,7153.981934 3509.788330,7153.395020 
	C3503.166504,7152.859863 3496.517822,7152.382324 3489.879639,7152.362793 
	C3399.219971,7152.095215 3308.559814,7151.994629 3217.900879,7151.589844 
	C3208.004639,7151.545898 3198.125000,7149.750000 3188.220215,7148.993164 
	C3182.249512,7148.536621 3176.246094,7148.351074 3170.256348,7148.326660 
	C3110.927734,7148.087402 3051.598389,7148.019531 2992.271240,7147.593262 
	C2983.038086,7147.527344 2973.825439,7145.782227 2964.584961,7145.044434 
	C2958.617432,7144.568359 2952.617188,7144.336426 2946.629883,7144.300781 
	C2910.633301,7144.087891 2874.635010,7144.086914 2838.639648,7143.754395 
	C2822.047852,7143.601074 2805.364502,7145.050781 2788.953125,7140.673340 
	C2784.577881,7139.506348 2779.668213,7140.297363 2775.003418,7140.270508 
	C2747.005859,7140.109863 2719.007080,7140.089355 2691.011230,7139.781250 
	C2675.746826,7139.612793 2660.403564,7140.936035 2645.320068,7136.737793 
	C2640.965088,7135.525391 2636.041260,7136.296387 2631.377441,7136.264160 
	C2608.046387,7136.101562 2584.713623,7136.091309 2561.384521,7135.793457 
	C2546.784180,7135.606934 2532.112061,7136.839844 2517.692627,7132.760254 
	C2513.344482,7131.529785 2508.416992,7132.281738 2503.754150,7132.243652 
	C2481.756348,7132.066406 2459.754395,7132.121094 2437.762451,7131.679688 
	C2429.839355,7131.520020 2421.943604,7130.156738 2414.027100,7129.435547 
	C2408.736084,7128.954102 2403.434814,7128.377930 2398.130859,7128.291992 
	C2382.134766,7128.031738 2366.133301,7128.092285 2350.137207,7127.831055 
	C2336.864258,7127.614746 2323.556885,7128.609375 2310.434326,7124.879395 
	C2305.463135,7123.465820 2299.835938,7124.410156 2294.512451,7124.177246 
	C2269.297363,7123.073730 2244.052002,7125.143555 2218.820557,7120.769043 
	C2204.555664,7118.296387 2189.553955,7120.287109 2174.903564,7119.742676 
	C2166.319580,7119.423340 2157.781006,7117.996582 2149.208496,7117.215820 
	C2143.913330,7116.733887 2138.596436,7116.449707 2133.283203,7116.215332 
	C2112.722412,7115.308594 2092.038086,7117.458496 2071.618652,7112.612793 
	C2065.285645,7111.109863 2058.336426,7112.294922 2051.676025,7112.060547 
	C2037.749756,7111.570801 2023.695312,7112.972656 2010.014404,7108.741699 
	C2006.937256,7107.790527 2003.396606,7108.334961 2000.069092,7108.198730 
	C1982.825562,7107.493164 1965.448730,7109.256348 1948.417114,7104.563477 
	C1944.054932,7103.361328 1939.131470,7104.234375 1934.468384,7104.079590 
	C1922.526611,7103.683594 1910.443481,7104.823242 1898.833008,7100.742188 
	C1897.613525,7100.312988 1896.197754,7100.416992 1894.869629,7100.326660 
	C1873.009766,7098.838379 1851.111938,7097.764160 1829.300415,7095.753906 
	C1810.181152,7093.991211 1791.161133,7091.158203 1772.092529,7088.838867 
	C1758.924561,7087.236328 1745.686401,7086.099121 1732.588501,7084.056152 
	C1707.047485,7080.071777 1681.465820,7076.174316 1656.146240,7071.032715 
	C1646.562134,7069.086426 1637.468384,7064.194824 1628.509033,7059.898926 
	C1622.997559,7057.255859 1622.829590,7050.169434 1627.998291,7046.885742 
	C1632.430298,7044.069336 1637.274536,7041.392090 1642.307007,7040.123047 
	C1659.662842,7035.747559 1677.049805,7031.254395 1694.668335,7028.217773 
	C1720.778076,7023.717773 1747.049805,7020.057617 1773.341553,7016.746582 
	C1791.106812,7014.509277 1809.216309,7014.617676 1826.827393,7011.639648 
	C1849.821533,7007.752441 1873.328003,7010.179688 1896.100708,7004.843750 
	C1897.389893,7004.541504 1898.737305,7004.432617 1900.064697,7004.354980 
	C1925.928223,7002.850098 1951.800293,7001.478027 1977.653198,6999.809082 
	C1986.232666,6999.255859 1994.753296,6997.842773 2003.320435,6997.030762 
	C2008.616211,6996.528809 2013.947144,6996.373047 2019.265747,6996.141602 
	C2035.179077,6995.447754 2051.231689,6997.133789 2066.926270,6992.651367 
	C2070.650146,6991.588867 2074.881836,6992.349609 2078.875977,6992.178711 
	C2099.438965,6991.298340 2119.971191,6992.383789 2140.573730,6988.842773 
	C2155.495605,6986.277344 2171.163086,6988.235840 2186.482666,6987.716797 
	C2194.407471,6987.447754 2202.292969,6986.120605 2210.206543,6985.382812 
	C2215.496826,6984.889160 2220.801270,6984.364258 2226.107422,6984.254883 
	C2238.769775,6983.995605 2251.454590,6984.354980 2264.097900,6983.767090 
	C2283.321045,6982.873047 2302.501953,6980.985352 2321.728516,6980.269531 
	C2340.373291,6979.575195 2359.351562,6981.870117 2377.649414,6979.195801 
	C2406.904053,6974.919922 2436.127197,6976.953125 2465.342041,6975.844238 
	C2477.282715,6975.390137 2489.266357,6976.471680 2501.049316,6972.957031 
	C2505.376465,6971.666504 2510.311768,6972.300781 2514.971436,6972.260254 
	C2535.635742,6972.080078 2556.302490,6972.109375 2576.964600,6971.795410 
	C2592.227295,6971.563477 2607.573975,6972.964355 2622.656738,6968.746582 
	C2627.009521,6967.529297 2631.934570,6968.291992 2636.598145,6968.262695 
	C2663.929199,6968.090820 2691.261230,6968.060547 2718.590576,6967.761719 
	C2733.190918,6967.602051 2747.843018,6968.765625 2762.293945,6964.820801 
	C2767.284912,6963.459473 2772.897461,6964.295898 2778.226807,6964.268066 
	C2813.557129,6964.082520 2848.888428,6964.018066 2884.217773,6963.732422 
	C2898.154053,6963.619629 2912.131348,6964.634766 2925.927246,6960.879395 
	C2930.921387,6959.520508 2936.528809,6960.318848 2941.857178,6960.296875 
	C2993.853027,6960.084473 3045.850342,6960.040527 3097.843994,6959.601562 
	C3107.744385,6959.517578 3117.622559,6957.772461 3127.529297,6957.049805 
	C3134.165283,6956.565918 3140.833252,6956.348145 3147.487793,6956.327148 
	C3226.148438,6956.080566 3304.809814,6955.976074 3383.469482,6955.580078 
	C3392.706299,6955.533203 3401.923828,6953.809082 3411.171143,6953.157227 
	C3418.469971,6952.643066 3425.800049,6952.356934 3433.116699,6952.350586 
	C3687.764648,6952.144043 3942.412598,6951.903809 4197.060547,6951.848633 
	C4324.384277,6951.821289 4451.708496,6952.130859 4579.032227,6952.334473 
	C4590.320312,6952.352539 4601.572266,6951.878418 4612.768555,6954.931641 
	C4618.388672,6956.463867 4624.687012,6955.643555 4630.679199,6955.661133 
	C4710.006348,6955.895508 4789.333984,6956.070312 4868.661133,6956.318848 
	C4879.285156,6956.352051 4889.861328,6955.953125 4900.398926,6958.897949 
	C4906.005371,6960.465332 4912.312012,6959.669434 4918.303223,6959.695312 
	C4970.298828,6959.920898 5022.295410,6959.997559 5074.290039,6960.376465 
	C5082.208008,6960.434082 5090.107910,6961.915527 5098.031738,6962.551758 
	C5104.653320,6963.083496 5111.294922,6963.630371 5117.931152,6963.675781 
	C5157.926758,6963.948242 5197.925781,6963.905273 5237.918945,6964.375488 
	C5247.819336,6964.491699 5257.693848,6966.208008 5267.594727,6967.015625 
	C5272.899902,6967.448242 5278.233398,6967.668945 5283.556641,6967.712891 
	C5307.554199,6967.907715 5331.555176,6967.819336 5355.549316,6968.196777 
	C5372.801270,6968.468262 5390.162598,6966.765137 5407.231445,6971.341797 
	C5411.603516,6972.513672 5416.516602,6971.706055 5421.182129,6971.736816 
	C5447.846191,6971.915039 5474.514160,6971.875977 5501.172852,6972.348633 
	C5509.750488,6972.500488 5518.297852,6974.067383 5526.873047,6974.827148 
	C5532.169434,6975.296387 5537.490723,6975.665527 5542.805176,6975.729980 
	C5561.469238,6975.956055 5580.135254,6975.953613 5598.798828,6976.193359 
	C5610.081543,6976.338379 5621.390625,6975.518066 5632.513184,6978.973145 
	C5636.816406,6980.310059 5641.768066,6979.682129 5646.426270,6979.732422 
	C5665.090332,6979.934082 5683.761230,6979.834473 5702.417969,6980.302734 
	C5710.340332,6980.500977 5718.229492,6981.885254 5726.144043,6982.617676 
	C5731.434570,6983.107910 5736.740234,6983.644531 5742.045898,6983.730957 
	C5758.708496,6984.002930 5775.576660,6982.481934 5791.994629,6984.571289 
	C5820.524414,6988.202148 5849.256836,6985.967773 5877.596191,6988.890137 
	C5898.864746,6991.083984 5920.216797,6990.033203 5941.214355,6992.638184 
	C5964.446777,6995.520996 5987.807129,6994.142578 6010.814941,6996.850586 
	C6028.068848,6998.880859 6045.632324,6997.596680 6062.378906,7000.747559 
	C6086.095703,7005.209473 6110.366699,7000.962891 6133.708008,7007.374512 
	C6134.970215,7007.721191 6136.354004,7007.633301 6137.682617,7007.726562 
	C6158.875488,7009.212891 6180.110352,7010.263672 6201.248047,7012.317871 
	C6218.376953,7013.982910 6235.379883,7016.919922 6252.455078,7019.167969 
	C6264.946289,7020.812988 6277.434570,7022.576660 6289.976074,7023.723145 
	C6315.159668,7026.023926 6339.821289,7031.250000 6364.377930,7036.895508 
	C6372.052734,7038.660156 6379.442871,7042.166504 6386.519531,7045.751465 
	C6388.974121,7046.995605 6391.074219,7050.713379 6391.583984,7053.608887 
	C6392.350586,7057.967773 6389.242676,7061.290039 6385.301758,7062.735352 
	C6376.565430,7065.938965 6367.822266,7069.436523 6358.776367,7071.422363 
	C6333.520996,7076.965332 6308.262695,7082.441406 6282.326660,7084.393066 
	C6267.173828,7085.533203 6252.154297,7088.563965 6237.105469,7090.940430 
	C6223.988281,7093.011230 6210.731445,7092.649414 6197.486328,7094.950684 
	C6177.307129,7098.456543 6156.520020,7098.404297 6136.007812,7100.072266 
	C6126.772949,7100.823242 6117.579102,7102.076172 6108.367676,7103.108887 
	C6107.043457,7103.257324 6105.729004,7103.532715 6104.402344,7103.614258 
	C6080.538086,7105.084473 6056.677734,7106.625000 6032.805176,7107.947266 
	C6021.541016,7108.570801 6010.191895,7107.475586 5999.121582,7111.051270 
	C5995.449707,7112.237305 5991.192383,7111.635254 5987.200195,7111.799805 
	C5967.298828,7112.621582 5947.396484,7111.336426 5927.510254,7115.244141 
	C5915.926758,7117.520996 5903.590332,7115.910156 5891.594238,7116.154297 
	C5880.975586,7116.370117 5870.315430,7115.529297 5859.891113,7118.982910 
	C5856.231934,7120.195801 5851.968262,7119.633301 5847.977051,7119.787598 
	C5824.749512,7120.686035 5801.478027,7118.981934 5778.296875,7123.302734 
	C5767.323730,7125.347656 5755.688965,7123.681152 5744.365234,7124.043457 
	C5727.119629,7124.594238 5709.963379,7124.243164 5692.652832,7127.003906 
	C5676.373535,7129.601074 5659.404785,7127.742188 5642.745605,7128.130859 
	C5626.158691,7128.518066 5609.466309,7126.867188 5593.064941,7131.321777 
	C5588.696289,7132.508301 5583.782715,7131.734375 5579.118164,7131.771973 
	C5559.786621,7131.928711 5540.454590,7131.978027 5521.124512,7132.215332 
	C5509.841797,7132.353516 5498.558594,7131.628906 5487.400879,7134.932129 
	C5482.451172,7136.396973 5476.817383,7135.679688 5471.492676,7135.725586 
	C5448.828613,7135.919434 5426.162598,7135.937988 5403.499512,7136.201172 
	C5389.560059,7136.363281 5375.584961,7135.366211 5361.796387,7139.147949 
	C5356.807617,7140.516602 5351.194824,7139.690918 5345.865723,7139.723633 
	C5315.201660,7139.911133 5284.537109,7139.988281 5253.874023,7140.245605 
	C5240.596680,7140.356934 5227.298340,7139.506348 5214.164551,7143.104980 
	C5209.173340,7144.472656 5203.564941,7143.687500 5198.237305,7143.714355 
	C5159.578613,7143.911621 5120.920410,7144.064941 5080.307617,7144.238770 
z"/>
</svg>